<svg id="Layer_1" enable-background="new 0 0 464.002 464.002" height="512" viewBox="0 0 464.002 464.002" width="512" xmlns="http://www.w3.org/2000/svg"><path d="m430.002 216.051v215.01c0 17.68-14.33 32-32 32h-332c-17.67 0-32-14.32-32-32v-215.01z" fill="#fe4f60"/><path d="m288.002.941c-24.073 0-45.075 13.365-56 33.06-20.75-37.407-71.24-44.306-101.259-14.314-38.823 38.855-13.544 105.586 41.061 109.117 3.191.211 117.192.212 120.396 0 33.534-2.175 59.802-30.224 59.802-63.862 0-35.319-28.569-64.001-64-64.001zm-160 64c0-26.596 21.534-48 48-48 26.468 0 48 21.533 48 48v48h-48c-26.649 0-48-21.732-48-48zm163.153 47.897c-1.197.15-2.928.104-51.153.104v-48c0-42.763 51.891-63.964 81.94-33.946 9.066 9.075 14.06 21.13 14.06 33.946 0 25.231-19.699 46.27-44.847 47.896z" fill="#d6f4fc"/><path d="m464.002 142.821v41.23c0 17.68-14.33 32-32 32h-400c-17.67 0-32-14.32-32-32v-41.23c0-17.68 14.33-32 32-32h400c17.67 0 32 14.32 32 32z" fill="#ff6d7a"/><path d="m432.26 150.821h-360.258c-17.67 0-32 14.32-32 32v1.35c0 25.762-38.768 27.127-39.965 1.393-.05-1.079-.035 1.807-.035-42.743 0-17.68 14.33-32 32-32h400c27.658 0 26.35 40 .258 40z" fill="#ff7c87"/><path d="m34.002 216.051h396v34h-396z" fill="#e84857"/><path d="m268.002 463.061h-72c0-7.029 0-240.427 0-247.01h72z" fill="#d6f4fc"/><path d="m196.002 216.051h72v34h-72z" fill="#bdeffc"/><path d="m304.002 216.051c-6.872 0-137.105 0-144 0 0-14.353 0-90.27 0-105.23h144z" fill="#d6f4fc"/><path d="m304.002 110.821v40h-144v-40z" fill="#f1fafc"/></svg>